<svg width="256" height="256" viewBox="0 0 256 256" fill="none" xmlns="http://www.w3.org/2000/svg">
<!-- Ikigai's own, in Bibata's idiom: outline stroke under body stroke, round joins -->
<path d="M168 128a40 40 0 1 0 -80 0a40 40 0 1 0 80 0" stroke="#0000FF" stroke-width="33" stroke-linejoin="round" stroke-linecap="round"/>
<path d="M168 128a40 40 0 1 0 -80 0a40 40 0 1 0 80 0" stroke="#00FF00" stroke-width="16" stroke-linejoin="round" stroke-linecap="round"/>
<path d="M128 6L158 42H98Z" stroke="#0000FF" stroke-width="37" stroke-linejoin="round" stroke-linecap="round" transform="rotate(0 128 128)"/>
<path d="M128 6L158 42H98Z" stroke="#00FF00" stroke-width="20" stroke-linejoin="round" stroke-linecap="round" transform="rotate(0 128 128)"/>
<path d="M128 6L158 42H98Z" stroke="#0000FF" stroke-width="37" stroke-linejoin="round" stroke-linecap="round" transform="rotate(90 128 128)"/>
<path d="M128 6L158 42H98Z" stroke="#00FF00" stroke-width="20" stroke-linejoin="round" stroke-linecap="round" transform="rotate(90 128 128)"/>
<path d="M128 6L158 42H98Z" stroke="#0000FF" stroke-width="37" stroke-linejoin="round" stroke-linecap="round" transform="rotate(180 128 128)"/>
<path d="M128 6L158 42H98Z" stroke="#00FF00" stroke-width="20" stroke-linejoin="round" stroke-linecap="round" transform="rotate(180 128 128)"/>
<path d="M128 6L158 42H98Z" stroke="#0000FF" stroke-width="37" stroke-linejoin="round" stroke-linecap="round" transform="rotate(270 128 128)"/>
<path d="M128 6L158 42H98Z" stroke="#00FF00" stroke-width="20" stroke-linejoin="round" stroke-linecap="round" transform="rotate(270 128 128)"/>
</svg>
